M48
; DRILL file {KiCad 8.0.7} date 2025-03-30T10:37:31-0400
; FORMAT={-:-/ absolute / inch / decimal}
; #@! TF.CreationDate,2025-03-30T10:37:31-04:00
; #@! TF.GenerationSoftware,Kicad,Pcbnew,8.0.7
; #@! TF.FileFunction,Plated,1,4,PTH
FMAT,2
INCH
; #@! TA.AperFunction,Plated,PTH,ViaDrill
T1C0.0118
; #@! TA.AperFunction,Plated,PTH,ComponentDrill
T2C0.0118
; #@! TA.AperFunction,Plated,PTH,ComponentDrill
T3C0.0181
; #@! TA.AperFunction,Plated,PTH,ComponentDrill
T4C0.0354
; #@! TA.AperFunction,Plated,PTH,ComponentDrill
T5C0.0390
; #@! TA.AperFunction,Plated,PTH,ComponentDrill
T6C0.0394
; #@! TA.AperFunction,Plated,PTH,ComponentDrill
T7C0.0472
; #@! TA.AperFunction,Plated,PTH,ComponentDrill
T8C0.0510
; #@! TA.AperFunction,Plated,PTH,ComponentDrill
T9C0.0669
; #@! TA.AperFunction,Plated,PTH,ComponentDrill
T10C0.0728
%
G90
G05
T1
X3.495Y-4.405
X3.9224Y-3.6537
X3.9225Y-3.6212
X3.9225Y-3.6862
X3.96Y-3.805
X4.0175Y-3.4512
X4.0175Y-3.4862
X4.0555Y-3.451
X4.056Y-3.4861
X4.0925Y-3.4512
X4.0925Y-3.4862
X4.1055Y-3.01
X4.1055Y-3.045
X4.14Y-3.01
X4.14Y-3.045
X4.185Y-2.72
X4.2332Y-2.81
X4.2654Y-2.8104
X4.2982Y-2.81
X4.3Y-3.705
X4.395Y-3.38
X4.395Y-3.41
X4.395Y-3.44
X4.4282Y-2.81
X4.4389Y-3.4266
X4.45Y-3.16
X4.45Y-3.195
X4.47Y-3.745
X4.4845Y-3.195
X4.545Y-3.195
X4.5749Y-3.0206
X4.575Y-2.9882
X4.575Y-3.0532
X4.5772Y-3.195
X4.61Y-2.695
X4.61Y-3.195
X4.685Y-3.33
X4.685Y-3.595
X4.685Y-3.67
X4.6851Y-3.6316
X4.72Y-3.595
X4.72Y-3.67
X4.7202Y-3.632
X4.955Y-1.87
X5.275Y-2.345
X5.2754Y-2.3101
X5.3575Y-2.925
X5.36Y-2.405
X5.36Y-2.7951
X5.36Y-2.8601
X5.3602Y-2.8277
X5.3893Y-3.0329
X5.4217Y-3.033
X5.4543Y-3.0329
X5.485Y-2.365
X5.515Y-2.54
X5.53Y-2.81
X5.5472Y-2.5294
X5.55Y-2.39
X5.55Y-2.4375
X5.55Y-2.79
X5.55Y-2.83
X5.5522Y-2.6544
X5.58Y-2.045
X5.64Y-2.165
X5.645Y-2.92
X5.652Y-3.0123
X5.6597Y-2.7184
X5.665Y-2.19
X5.6666Y-2.5716
X5.6672Y-2.5294
X5.6674Y-2.4737
X5.6935Y-2.35
X5.7011Y-2.19
X5.7157Y-3.012
X5.7261Y-2.165
X5.8066Y-2.7
X5.83Y-2.725
X5.84Y-3.175
X5.8595Y-3.1997
X5.905Y-2.11
X5.905Y-2.17
X5.905Y-2.225
X5.925Y-2.4
X5.925Y-2.475
X5.925Y-2.55
X5.945Y-2.615
X5.98Y-2.44
X5.9912Y-2.3728
X6.005Y-2.0445
X6.01Y-2.68
X6.05Y-2.235
X6.075Y-2.745
X6.08Y-2.385
X6.0871Y-2.4303
X6.095Y-1.89
X6.1005Y-3.077
X6.115Y-1.95
X6.125Y-2.45
X6.1331Y-3.0768
X6.15Y-2.43
X6.1655Y-3.077
X6.205Y-2.3
X6.23Y-2.95
X6.245Y-1.95
X6.245Y-2.3
X6.285Y-2.3
X6.2973Y-2.5003
X6.3Y-2.555
X6.37Y-1.95
X6.395Y-2.34
X6.395Y-2.385
X6.455Y-2.13
X6.4825Y-2.1299
X6.495Y-2.435
X6.51Y-2.13
X6.5543Y-3.0429
X6.58Y-2.73
X6.5867Y-3.043
X6.595Y-2.1922
X6.6Y-2.335
X6.6193Y-3.0429
X6.66Y-2.355
X6.6825Y-2.13
X6.685Y-2.765
X6.71Y-2.38
X6.71Y-2.1299
X6.7375Y-2.13
X6.765Y-2.73
X6.7855Y-2.11
X6.7855Y-2.175
X6.7855Y-2.24
X6.7855Y-2.305
X6.7855Y-2.37
X6.8245Y-2.75
X6.8245Y-2.78
X6.88Y-2.75
X6.88Y-2.78
X6.925Y-2.3947
X6.94Y-2.75
X6.94Y-2.78
X6.95Y-1.94
X6.95Y-2.4999
X6.95Y-2.5435
X7.01Y-2.785
X7.015Y-1.94
X7.03Y-2.385
X7.0685Y-2.6215
X7.0774Y-2.7807
X7.095Y-1.94
X7.095Y-2.385
X7.11Y-2.195
X7.1121Y-2.62
X7.1135Y-1.915
X7.135Y-1.94
X7.14Y-2.7805
X7.145Y-2.42
X7.155Y-2.205
X7.155Y-2.55
X7.195Y-2.47
X7.2Y-2.55
X7.205Y-2.7807
X7.2107Y-2.0893
X7.2418Y-2.1203
X7.25Y-2.52
X7.2647Y-2.7846
X7.28Y-1.745
X7.28Y-1.805
X7.28Y-1.86
X7.285Y-2.205
X7.285Y-2.265
X7.285Y-2.32
X7.3347Y-2.7846
X7.35Y-2.32
X7.375Y-2.37
X7.375Y-2.415
X7.375Y-2.455
X7.375Y-2.5
X7.375Y-2.545
X7.3997Y-2.7846
X7.42Y-2.63
X7.45Y-2.46
X7.455Y-2.37
X7.465Y-2.755
X7.61Y-2.275
X7.665Y-1.975
X7.665Y-2.05
X7.665Y-2.125
X7.665Y-2.2
X7.665Y-2.275
X7.74Y-2.235
X7.815Y-1.775
X7.815Y-1.825
X7.815Y-1.9
X7.815Y-1.975
X7.815Y-2.05
X7.815Y-2.125
X7.815Y-2.18
X7.815Y-2.235
X7.87Y-2.55
X7.87Y-2.625
X7.87Y-2.7
X7.87Y-2.775
T2
X4.3318Y-2.9868
X4.3318Y-3.0332
X4.355Y-3.01
X4.3782Y-2.9868
X4.3782Y-3.0332
X4.5092Y-3.4298
X4.5092Y-3.4763
X4.5324Y-3.453
X4.5556Y-3.4298
X4.5556Y-3.4763
T3
X7.37Y-1.9254
X7.7149Y-1.9254
T4
X5.12Y-1.85
X5.22Y-1.85
T5
X3.8134Y-2.9109
X3.9906Y-2.9109
X7.8128Y-2.91
X7.99Y-2.91
T6
X3.8452Y-2.35
X3.8452Y-2.495
X3.8452Y-2.64
X3.8452Y-2.785
X3.8857Y-3.215
X3.8857Y-3.3134
X3.9452Y-2.35
X3.9452Y-2.495
X3.9452Y-2.64
X3.9452Y-2.785
X4.8252Y-2.05
X4.8252Y-2.15
X4.8252Y-2.25
X4.8252Y-2.35
X4.8252Y-2.45
X4.8252Y-2.55
X4.8252Y-2.65
X4.8252Y-2.75
X5.1724Y-3.2425
X5.2724Y-3.2425
X5.3724Y-3.2425
X5.4724Y-3.2425
X5.69Y-1.98
X5.79Y-1.98
X5.89Y-1.98
X6.3386Y-3.2425
X6.43Y-2.815
X6.43Y-2.915
X6.4386Y-3.2425
X6.53Y-2.815
X6.53Y-2.915
X6.5386Y-3.2425
X6.63Y-2.815
X6.63Y-2.915
X6.6386Y-3.2425
X6.73Y-2.815
X6.73Y-2.915
X7.175Y-3.6152
X7.175Y-3.7152
X7.32Y-3.615
X7.32Y-3.715
X7.53Y-2.435
X7.53Y-2.535
X7.53Y-2.635
X7.53Y-2.735
X7.63Y-2.435
X7.63Y-2.535
X7.63Y-2.635
X7.63Y-2.735
T7
X3.3563Y-1.7584
X3.3563Y-4.6521
X3.4941Y-4.6521
X7.1129Y-3.08
X7.1129Y-3.2769
X7.605Y-3.08
X7.605Y-3.2769
X8.3011Y-1.7594
X8.3011Y-4.6531
X8.4389Y-4.6531
T8
X3.764Y-3.0089
X4.04Y-3.0089
X7.7634Y-3.008
X8.0394Y-3.008
T9
X3.2598Y-1.9691
X3.2598Y-4.4415
X3.5906Y-1.9218
X3.5906Y-4.4887
X8.2046Y-1.97
X8.2046Y-4.4424
X8.5354Y-1.9228
X8.5354Y-4.4897
T10
X4.28Y-2.34
X4.5556Y-2.34
M30
