M48
; DRILL file {KiCad 8.0.7} date 2025-03-30T10:37:31-0400
; FORMAT={-:-/ absolute / inch / decimal}
; #@! TF.CreationDate,2025-03-30T10:37:31-04:00
; #@! TF.GenerationSoftware,Kicad,Pcbnew,8.0.7
; #@! TF.FileFunction,NonPlated,1,4,NPTH
FMAT,2
INCH
; #@! TA.AperFunction,NonPlated,NPTH,ComponentDrill
T1C0.0240
; #@! TA.AperFunction,NonPlated,NPTH,ComponentDrill
T2C0.0472
; #@! TA.AperFunction,NonPlated,NPTH,ComponentDrill
T3C0.0709
; #@! TA.AperFunction,NonPlated,NPTH,ComponentDrill
T4C0.0984
; #@! TA.AperFunction,NonPlated,NPTH,ComponentDrill
T5C0.1260
%
G90
G05
T2
X3.8069Y-3.152
T3
X7.3589Y-3.0013
X7.3589Y-3.3556
T4
X4.8449Y-1.8035
X4.8449Y-2.9965
X6.9551Y-1.8035
X6.9551Y-2.9965
T5
X3.765Y-2.135
X3.765Y-3.615
X4.64Y-4.05
X7.18Y-4.05
X8.03Y-2.135
X8.03Y-3.615
T1
G00X6.4249Y-1.9369
M15
G01X6.4249Y-1.9057
M16
G05
G00X6.4249Y-1.7882
M15
G01X6.4249Y-1.7413
M16
G05
G00X6.7652Y-1.938
M15
G01X6.7652Y-1.9069
M16
G05
G00X6.7652Y-1.7885
M15
G01X6.7652Y-1.7416
M16
G05
M30
