%TF.GenerationSoftware,KiCad,Pcbnew,8.0.7*%
%TF.CreationDate,2025-03-30T10:37:29-04:00*%
%TF.ProjectId,RC-Car-Controller,52432d43-6172-42d4-936f-6e74726f6c6c,rev?*%
%TF.SameCoordinates,Original*%
%TF.FileFunction,Copper,L4,Bot*%
%TF.FilePolarity,Positive*%
%FSLAX46Y46*%
G04 Gerber Fmt 4.6, Leading zero omitted, Abs format (unit mm)*
G04 Created by KiCad (PCBNEW 8.0.7) date 2025-03-30 10:37:29*
%MOMM*%
%LPD*%
G01*
G04 APERTURE LIST*
G04 Aperture macros list*
%AMRoundRect*
0 Rectangle with rounded corners*
0 $1 Rounding radius*
0 $2 $3 $4 $5 $6 $7 $8 $9 X,Y pos of 4 corners*
0 Add a 4 corners polygon primitive as box body*
4,1,4,$2,$3,$4,$5,$6,$7,$8,$9,$2,$3,0*
0 Add four circle primitives for the rounded corners*
1,1,$1+$1,$2,$3*
1,1,$1+$1,$4,$5*
1,1,$1+$1,$6,$7*
1,1,$1+$1,$8,$9*
0 Add four rect primitives between the rounded corners*
20,1,$1+$1,$2,$3,$4,$5,0*
20,1,$1+$1,$4,$5,$6,$7,0*
20,1,$1+$1,$6,$7,$8,$9,0*
20,1,$1+$1,$8,$9,$2,$3,0*%
G04 Aperture macros list end*
%TA.AperFunction,Conductor*%
%ADD10C,0.200000*%
%TD*%
%TA.AperFunction,ComponentPad*%
%ADD11R,1.700000X1.700000*%
%TD*%
%TA.AperFunction,ComponentPad*%
%ADD12O,1.700000X1.700000*%
%TD*%
%TA.AperFunction,ComponentPad*%
%ADD13R,1.750000X1.750000*%
%TD*%
%TA.AperFunction,ComponentPad*%
%ADD14C,1.750000*%
%TD*%
%TA.AperFunction,ComponentPad*%
%ADD15C,2.700000*%
%TD*%
%TA.AperFunction,ComponentPad*%
%ADD16C,0.500000*%
%TD*%
%TA.AperFunction,ComponentPad*%
%ADD17O,1.600000X2.000000*%
%TD*%
%TA.AperFunction,ComponentPad*%
%ADD18R,2.775000X2.775000*%
%TD*%
%TA.AperFunction,ComponentPad*%
%ADD19C,2.775000*%
%TD*%
%TA.AperFunction,ComponentPad*%
%ADD20R,1.800000X1.800000*%
%TD*%
%TA.AperFunction,ComponentPad*%
%ADD21C,1.800000*%
%TD*%
%TA.AperFunction,HeatsinkPad*%
%ADD22R,1.680000X1.680000*%
%TD*%
%TA.AperFunction,ComponentPad*%
%ADD23RoundRect,0.250000X-0.750000X0.600000X-0.750000X-0.600000X0.750000X-0.600000X0.750000X0.600000X0*%
%TD*%
%TA.AperFunction,ComponentPad*%
%ADD24O,2.000000X1.700000*%
%TD*%
%TA.AperFunction,SMDPad,CuDef*%
%ADD25R,2.420000X5.080000*%
%TD*%
%TA.AperFunction,SMDPad,CuDef*%
%ADD26R,0.460000X0.950000*%
%TD*%
%TA.AperFunction,ComponentPad*%
%ADD27C,0.970000*%
%TD*%
%TA.AperFunction,ComponentPad*%
%ADD28O,2.900000X1.700000*%
%TD*%
%TA.AperFunction,ComponentPad*%
%ADD29C,1.498600*%
%TD*%
%TA.AperFunction,ComponentPad*%
%ADD30C,1.803400*%
%TD*%
%TA.AperFunction,ViaPad*%
%ADD31C,0.600000*%
%TD*%
%TA.AperFunction,Conductor*%
%ADD32C,0.254000*%
%TD*%
%TA.AperFunction,Conductor*%
%ADD33C,0.762000*%
%TD*%
%TA.AperFunction,Conductor*%
%ADD34C,1.016000*%
%TD*%
G04 APERTURE END LIST*
D10*
%TO.N,VDD_LOAD_PRE_SW*%
X114300000Y-81534000D02*
X112649000Y-81534000D01*
X112649000Y-79629000D01*
X114300000Y-79629000D01*
X114300000Y-81534000D01*
%TA.AperFunction,Conductor*%
G36*
X114300000Y-81534000D02*
G01*
X112649000Y-81534000D01*
X112649000Y-79629000D01*
X114300000Y-79629000D01*
X114300000Y-81534000D01*
G37*
%TD.AperFunction*%
X105537000Y-77724000D02*
X103886000Y-77724000D01*
X103886000Y-76073000D01*
X105537000Y-76073000D01*
X105537000Y-77724000D01*
%TA.AperFunction,Conductor*%
G36*
X105537000Y-77724000D02*
G01*
X103886000Y-77724000D01*
X103886000Y-76073000D01*
X105537000Y-76073000D01*
X105537000Y-77724000D01*
G37*
%TD.AperFunction*%
%TD*%
D11*
%TO.P,TP6,1,1*%
%TO.N,GNDA*%
X185928000Y-94361000D03*
D12*
%TO.P,TP6,2*%
%TO.N,N/C*%
X185928000Y-91821000D03*
%TD*%
D11*
%TO.P,SW2,1,A*%
%TO.N,Net-(SW2-A)*%
X149606000Y-50292000D03*
D12*
%TO.P,SW2,2,B*%
%TO.N,Net-(SW2-B)*%
X147066000Y-50292000D03*
%TO.P,SW2,3,C*%
%TO.N,Net-(SW2-C)*%
X144526000Y-50292000D03*
%TD*%
D11*
%TO.P,J3,1,Pin_1*%
%TO.N,/Connectors/USART_TX*%
X163322000Y-74041000D03*
D12*
%TO.P,J3,2,Pin_2*%
%TO.N,/Connectors/USART_RX*%
X163322000Y-71501000D03*
%TO.P,J3,3,Pin_3*%
%TO.N,/Connectors/SWCLK*%
X165862000Y-74041000D03*
%TO.P,J3,4,Pin_4*%
%TO.N,/Connectors/SWDIO*%
X165862000Y-71501000D03*
%TO.P,J3,5,Pin_5*%
%TO.N,/Connectors/NRST*%
X168402000Y-74041000D03*
%TO.P,J3,6,Pin_6*%
%TO.N,GNDA*%
X168402000Y-71501000D03*
%TO.P,J3,7,Pin_7*%
%TO.N,+3V3*%
X170942000Y-74041000D03*
%TO.P,J3,8,Pin_8*%
%TO.N,unconnected-(J3-Pin_8-Pad8)*%
X170942000Y-71501000D03*
%TD*%
D13*
%TO.P,R45,1*%
%TO.N,+3V3*%
X85250000Y-118164000D03*
D14*
%TO.P,R45,2*%
%TO.N,/Inputs/Slider_L*%
X88750000Y-118164000D03*
%TO.P,R45,3*%
%TO.N,GNDA*%
X85250000Y-44664000D03*
D15*
%TO.P,R45,MP*%
%TO.N,N/C*%
X91200000Y-114014000D03*
X82800000Y-112814000D03*
X82800000Y-50014000D03*
X91200000Y-48814000D03*
%TD*%
D11*
%TO.P,J4,1,Pin_1*%
%TO.N,+3V3*%
X191262000Y-61849000D03*
D12*
%TO.P,J4,2,Pin_2*%
%TO.N,GNDA*%
X193802000Y-61849000D03*
%TO.P,J4,3,Pin_3*%
%TO.N,/Connectors/RF_TMS*%
X191262000Y-64389000D03*
%TO.P,J4,4,Pin_4*%
%TO.N,/Connectors/RF_nTRST*%
X193802000Y-64389000D03*
%TO.P,J4,5,Pin_5*%
%TO.N,/Connectors/RF_TCK*%
X191262000Y-66929000D03*
%TO.P,J4,6,Pin_6*%
%TO.N,/Connectors/RF_TDI*%
X193802000Y-66929000D03*
%TO.P,J4,7,Pin_7*%
%TO.N,/Connectors/RF_nSRST*%
X191262000Y-69469000D03*
%TO.P,J4,8,Pin_8*%
%TO.N,/Connectors/RF_TDO*%
X193802000Y-69469000D03*
%TD*%
D16*
%TO.P,U2,17,PAD*%
%TO.N,GNDA*%
X111207002Y-77043998D03*
X111207002Y-75864001D03*
X110617003Y-76454000D03*
X110027004Y-77043998D03*
X110027004Y-75864001D03*
%TD*%
D17*
%TO.P,Brd2,1,GND*%
%TO.N,GNDA*%
X131380000Y-82360414D03*
%TO.P,Brd2,2,VCC*%
%TO.N,+3V3*%
X133920000Y-82360414D03*
%TO.P,Brd2,3,SCL*%
%TO.N,/MCU/I2C2_SCL*%
X136460000Y-82360414D03*
%TO.P,Brd2,4,SDA*%
%TO.N,/MCU/I2C2_SDA*%
X139000000Y-82360414D03*
%TD*%
D18*
%TO.P,S1,1*%
%TO.N,VDD_LOAD_PRE_SW*%
X108712000Y-59436000D03*
D19*
%TO.P,S1,1A*%
%TO.N,VDD_LOAD*%
X115712000Y-59436000D03*
%TD*%
D20*
%TO.P,D3,1,K*%
%TO.N,GNDA*%
X132588000Y-46990000D03*
D21*
%TO.P,D3,2,A*%
%TO.N,Net-(D3-A)*%
X130048000Y-46990000D03*
%TD*%
D16*
%TO.P,U3,17,GND*%
%TO.N,GNDA*%
X114533500Y-88296800D03*
X115713500Y-88296800D03*
X115123500Y-87706800D03*
D22*
X115123500Y-87706800D03*
D16*
X114533500Y-87116800D03*
X115713500Y-87116800D03*
%TD*%
D11*
%TO.P,J6,1,Pin_1*%
%TO.N,+3V3*%
X122560000Y-52070000D03*
D12*
%TO.P,J6,2,Pin_2*%
%TO.N,GNDA*%
X122560000Y-54610000D03*
%TO.P,J6,3,Pin_3*%
%TO.N,/MCU/SPI4_MOSI*%
X122560000Y-57150000D03*
%TO.P,J6,4,Pin_4*%
%TO.N,/MCU/SPI4_SCLK*%
X122560000Y-59690000D03*
%TO.P,J6,5,Pin_5*%
%TO.N,/MCU/SPI4_CS*%
X122560000Y-62230000D03*
%TO.P,J6,6,Pin_6*%
%TO.N,/MCU/SPI4_DC*%
X122560000Y-64770000D03*
%TO.P,J6,7,Pin_7*%
%TO.N,/Outputs/LCD_RST*%
X122560000Y-67310000D03*
%TO.P,J6,8,Pin_8*%
%TO.N,+3V3*%
X122560000Y-69850000D03*
%TD*%
D11*
%TO.P,TP4,1,1*%
%TO.N,GNDA*%
X182245000Y-94366000D03*
D12*
%TO.P,TP4,2*%
%TO.N,N/C*%
X182245000Y-91826000D03*
%TD*%
D17*
%TO.P,Brd1,1,GND*%
%TO.N,GNDA*%
X161000000Y-82360414D03*
%TO.P,Brd1,2,VCC*%
%TO.N,+3V3*%
X163540000Y-82360414D03*
%TO.P,Brd1,3,SCL*%
%TO.N,/MCU/I2C1_SCL*%
X166080000Y-82360414D03*
%TO.P,Brd1,4,SDA*%
%TO.N,/MCU/I2C1_SDA*%
X168620000Y-82360414D03*
%TD*%
D23*
%TO.P,J1,1,Pin_1*%
%TO.N,Net-(J1-Pin_1)*%
X98696000Y-81661000D03*
D24*
%TO.P,J1,2,Pin_2*%
%TO.N,GND_BATT*%
X98696000Y-84161000D03*
%TD*%
D25*
%TO.P,J5,2,Ext*%
%TO.N,GNDA*%
X195958000Y-45466000D03*
X187198000Y-45466000D03*
D26*
X195958000Y-48456000D03*
X187198000Y-48456000D03*
D27*
X195958000Y-48906000D03*
X187198000Y-48906000D03*
%TD*%
D28*
%TO.P,SW1,1,1*%
%TO.N,GNDA*%
X180667000Y-78232000D03*
X193167000Y-78232000D03*
%TO.P,SW1,2,2*%
%TO.N,/Connectors/NRST*%
X180667000Y-83232000D03*
X193167000Y-83232000D03*
%TD*%
D11*
%TO.P,TP1,1,1*%
%TO.N,VDD_USB*%
X100208000Y-59690000D03*
D12*
%TO.P,TP1,2*%
%TO.N,N/C*%
X97668000Y-59690000D03*
%TD*%
D13*
%TO.P,R48,1*%
%TO.N,+3V3*%
X210848000Y-118188000D03*
D14*
%TO.P,R48,2*%
%TO.N,/Inputs/Slider_R*%
X214348000Y-118188000D03*
%TO.P,R48,3*%
%TO.N,GNDA*%
X210848000Y-44688000D03*
D15*
%TO.P,R48,MP*%
%TO.N,N/C*%
X216798000Y-114038000D03*
X208398000Y-112838000D03*
X208398000Y-50038000D03*
X216798000Y-48838000D03*
%TD*%
D11*
%TO.P,TP2,1,1*%
%TO.N,GNDA*%
X100208000Y-70739000D03*
D12*
%TO.P,TP2,2*%
%TO.N,N/C*%
X97668000Y-70739000D03*
%TD*%
D11*
%TO.P,TP3,1,1*%
%TO.N,VDD_BATT*%
X100208000Y-67056000D03*
D12*
%TO.P,TP3,2*%
%TO.N,N/C*%
X97668000Y-67056000D03*
%TD*%
D11*
%TO.P,TP5,1,1*%
%TO.N,+3V3*%
X100208000Y-63373000D03*
D12*
%TO.P,TP5,2*%
%TO.N,N/C*%
X97668000Y-63373000D03*
%TD*%
D29*
%TO.P,SW4,1,1*%
%TO.N,GNDA*%
X198445999Y-73914000D03*
%TO.P,SW4,2,2*%
%TO.N,/Inputs/Button_R*%
X202946000Y-73914000D03*
D30*
%TO.P,SW4,3,3*%
%TO.N,GNDA*%
X197190999Y-76404299D03*
%TO.P,SW4,4,4*%
X204201000Y-76404299D03*
%TD*%
D29*
%TO.P,SW3,1,1*%
%TO.N,GNDA*%
X96860999Y-73936051D03*
%TO.P,SW3,2,2*%
%TO.N,/Inputs/Button_L*%
X101361000Y-73936051D03*
D30*
%TO.P,SW3,3,3*%
%TO.N,GNDA*%
X95605999Y-76426350D03*
%TO.P,SW3,4,4*%
X102616000Y-76426350D03*
%TD*%
D31*
%TO.N,+3V3*%
X145177947Y-76505179D03*
X143256000Y-54991000D03*
X119888000Y-93218000D03*
X112748616Y-87036205D03*
X136080500Y-74295000D03*
X140462000Y-71374000D03*
X176276000Y-69850000D03*
X179766345Y-70629239D03*
X119888000Y-91313000D03*
X143931000Y-65318000D03*
X176276000Y-70612000D03*
X140970000Y-71882000D03*
X158242000Y-74930000D03*
X143952436Y-62832101D03*
X137711270Y-77039454D03*
X140081000Y-64516000D03*
X119893416Y-92252891D03*
X119002630Y-92241686D03*
X173342000Y-69850000D03*
X158623000Y-58420000D03*
X181229000Y-49276000D03*
X180213000Y-49276000D03*
X173342000Y-70612000D03*
X143891000Y-55626000D03*
X125857000Y-47498000D03*
X118999000Y-93218000D03*
X159639000Y-58420000D03*
X138538925Y-77035215D03*
X183007000Y-70629239D03*
X136887925Y-77035215D03*
X140970000Y-70866000D03*
X168129925Y-77289215D03*
X180681991Y-48641000D03*
X167302270Y-77293454D03*
X181356000Y-70625000D03*
X118999000Y-91313000D03*
X157607000Y-58420000D03*
X141732000Y-51943000D03*
X166478925Y-77289215D03*
%TO.N,/MCU/I2C2_SDA*%
X148831702Y-81272920D03*
%TO.N,GNDA*%
X164973000Y-61849000D03*
X184150000Y-64008000D03*
X143946000Y-64246000D03*
X194691000Y-53975000D03*
X178181000Y-49276000D03*
X198501000Y-45085000D03*
X149987000Y-56515000D03*
X143383000Y-74168000D03*
X170434000Y-60452000D03*
X172352000Y-53594000D03*
X176530000Y-49276000D03*
X183941000Y-53856473D03*
X165354000Y-54102000D03*
X172352000Y-58547000D03*
X189611000Y-69977000D03*
X156604573Y-78154815D03*
X185039000Y-57531000D03*
X149987000Y-53594000D03*
X107524002Y-71374000D03*
X118999000Y-84582000D03*
X198501000Y-52070000D03*
X187325000Y-60198000D03*
X136144000Y-61087000D03*
X174752000Y-70612000D03*
X199898000Y-64770000D03*
X149987000Y-55118000D03*
X175895000Y-60825000D03*
X167640000Y-59309000D03*
X162433000Y-59436000D03*
X198501000Y-56769000D03*
X102045000Y-88550500D03*
X169164000Y-59817000D03*
X199898000Y-68580000D03*
X99632000Y-93630500D03*
X170434747Y-54100066D03*
X184912000Y-45847000D03*
X143559901Y-76511597D03*
X172352000Y-55245000D03*
X117094000Y-68453000D03*
X141025000Y-67421000D03*
X136145215Y-70995075D03*
X198501000Y-53975000D03*
X151003000Y-66421000D03*
X103010109Y-87656084D03*
X117094000Y-81153000D03*
X109220000Y-94107000D03*
X169799000Y-70231000D03*
X158623000Y-49530000D03*
X171831000Y-69342000D03*
X194691000Y-57785000D03*
X115443000Y-81153000D03*
X178562000Y-60579000D03*
X103950000Y-88550500D03*
X188468000Y-66802000D03*
X174752000Y-69850000D03*
X164656247Y-54100066D03*
X194691000Y-52070000D03*
X180213000Y-60579000D03*
X198501000Y-48260000D03*
X139319000Y-60071000D03*
X116205000Y-75901002D03*
X187325000Y-61341000D03*
X185039000Y-58928000D03*
X116201981Y-76724478D03*
X116261307Y-81153000D03*
X199898000Y-66675000D03*
X140898000Y-64246000D03*
X111633000Y-85852000D03*
X155781228Y-78150576D03*
X169735500Y-54102000D03*
X172352000Y-56896000D03*
X196596000Y-56769000D03*
X185039000Y-56007000D03*
X161798000Y-49530000D03*
X150495000Y-64770000D03*
X152654000Y-68072000D03*
X136149454Y-71822730D03*
X108341934Y-71385056D03*
X144614000Y-59690000D03*
X187325000Y-62357000D03*
X182753000Y-62738000D03*
X183152264Y-53067736D03*
X187951425Y-70729808D03*
X163957000Y-54102000D03*
X178054000Y-70739000D03*
X198501000Y-50165000D03*
X112477002Y-71374000D03*
X186690000Y-58928000D03*
X150495000Y-60960000D03*
X103950000Y-87661500D03*
X150495000Y-62865000D03*
X109175002Y-71374000D03*
X154953573Y-78154815D03*
X143757092Y-69046793D03*
X155321000Y-49530000D03*
X116205000Y-77552002D03*
X102045000Y-87661500D03*
X167132000Y-69342000D03*
X184522425Y-70729808D03*
X186300425Y-70729808D03*
X136145215Y-72646075D03*
X171132500Y-54102000D03*
X193294000Y-57785000D03*
X154305000Y-69723000D03*
X184912000Y-44323000D03*
X162433000Y-60579000D03*
X194691000Y-55880000D03*
X113538000Y-95123000D03*
X187325000Y-63500000D03*
X181737000Y-56007000D03*
X103021314Y-88546870D03*
X187325000Y-64643000D03*
X99627761Y-92802845D03*
X111633000Y-86614000D03*
X172352000Y-60198000D03*
X199898000Y-70485000D03*
X144808537Y-55627170D03*
X198501000Y-46355000D03*
X194691000Y-50165000D03*
X198501000Y-55372000D03*
X145443537Y-54992170D03*
X152527000Y-51930000D03*
X181483000Y-61468000D03*
X184912000Y-47244000D03*
X99632000Y-91979500D03*
X111633000Y-87376000D03*
%TO.N,/MCU/I2C2_SCL*%
X148336000Y-80645000D03*
%TO.N,/MCU/I2C1_SDA*%
X147487000Y-68580000D03*
%TO.N,/MCU/I2C1_SCL*%
X148082000Y-69215000D03*
%TO.N,VDD_BATT*%
X106299000Y-69088000D03*
%TO.N,/Connectors/SWCLK*%
X155575000Y-62230000D03*
%TO.N,/Connectors/SWDIO*%
X156210000Y-61722000D03*
%TO.N,VDD_USB*%
X167513000Y-55681000D03*
X154813000Y-48006000D03*
%TO.N,/Inputs/Button_L*%
X100584000Y-96647000D03*
%TO.N,/Inputs/Slider_L*%
X88773000Y-111887000D03*
%TO.N,VDD_LOAD_PRE_SW*%
X113906000Y-81153000D03*
X104280000Y-77343000D03*
X105156000Y-76454000D03*
X104280000Y-76454000D03*
X105156000Y-77343000D03*
X113030000Y-81153000D03*
X113030000Y-80264000D03*
%TO.N,/MCU/SDMMC1_CMD*%
X152175819Y-60268327D03*
X179541000Y-66585000D03*
%TO.N,/MCU/SDMMC1_D1*%
X159951706Y-63506465D03*
X182880000Y-64770000D03*
%TO.N,/MCU/SDMMC1_CK*%
X180648376Y-66547752D03*
X151892000Y-61976000D03*
%TO.N,/MCU/SDMMC1_D2*%
X176530000Y-63498000D03*
X154612080Y-61728475D03*
%TO.N,/MCU/SDMMC1_D3*%
X154432000Y-60579000D03*
X176530000Y-64606003D03*
%TO.N,/MCU/SDMMC1_D0*%
X181737000Y-64770000D03*
X160020000Y-64897000D03*
%TO.N,/MCU/SPI4_CS*%
X140970000Y-60706000D03*
X133995221Y-58676379D03*
%TO.N,/MCU/SPI4_DC*%
X133985000Y-59563000D03*
X140970000Y-61913000D03*
%TO.N,/Connectors/RF_TDI*%
X189230000Y-62484000D03*
%TO.N,/Connectors/RF_TCK*%
X189357000Y-60198000D03*
%TO.N,/MCU/RF_RESET*%
X153670000Y-56769000D03*
X180594000Y-55753000D03*
%TD*%
D32*
%TO.N,/MCU/I2C2_SDA*%
X148824622Y-81280000D02*
X141351000Y-81280000D01*
X141351000Y-81280000D02*
X140270586Y-82360414D01*
X140270586Y-82360414D02*
X139000000Y-82360414D01*
X148831702Y-81272920D02*
X148824622Y-81280000D01*
X139000000Y-82361000D02*
X139000000Y-82360414D01*
%TO.N,/MCU/I2C2_SCL*%
X138175414Y-80645000D02*
X136460000Y-82360414D01*
X148336000Y-80645000D02*
X138175414Y-80645000D01*
X136460000Y-82353948D02*
X136460000Y-82360414D01*
%TO.N,/MCU/I2C1_SDA*%
X167293000Y-81033414D02*
X168620000Y-82360414D01*
X147487000Y-68580000D02*
X148333712Y-68580000D01*
X155754639Y-70539000D02*
X166249053Y-81033414D01*
X148333712Y-68580000D02*
X150241000Y-70487288D01*
X166249053Y-81033414D02*
X167293000Y-81033414D01*
X150241000Y-70487288D02*
X150241000Y-70539000D01*
X150241000Y-70539000D02*
X155754639Y-70539000D01*
%TO.N,/MCU/I2C1_SCL*%
X166080000Y-82360414D02*
X166080000Y-81506414D01*
X166080000Y-81506414D02*
X155566586Y-70993000D01*
X155566586Y-70993000D02*
X149860000Y-70993000D01*
X149860000Y-70993000D02*
X148082000Y-69215000D01*
%TO.N,/Connectors/NRST*%
X180667000Y-83232000D02*
X193167000Y-83232000D01*
D33*
%TO.N,VDD_BATT*%
X104267000Y-67056000D02*
X100208000Y-67056000D01*
X106299000Y-69088000D02*
X104267000Y-67056000D01*
D32*
%TO.N,/Connectors/SWCLK*%
X163576000Y-69977000D02*
X164719900Y-71120900D01*
X157226000Y-69977000D02*
X163576000Y-69977000D01*
X155575000Y-68326000D02*
X157226000Y-69977000D01*
X164719900Y-71120900D02*
X164719900Y-72898900D01*
X155575000Y-62230000D02*
X155575000Y-68326000D01*
X164719900Y-72898900D02*
X165862000Y-74041000D01*
%TO.N,/Connectors/SWDIO*%
X156210000Y-61722000D02*
X156210000Y-68199000D01*
X156210000Y-68199000D02*
X157480000Y-69469000D01*
X163830000Y-69469000D02*
X165862000Y-71501000D01*
X157480000Y-69469000D02*
X163830000Y-69469000D01*
D33*
%TO.N,VDD_USB*%
X158877000Y-51181000D02*
X165227000Y-51181000D01*
X167513000Y-53467000D02*
X167513000Y-55681000D01*
X165227000Y-51181000D02*
X167513000Y-53467000D01*
X155702000Y-48006000D02*
X158877000Y-51181000D01*
X154813000Y-48006000D02*
X155702000Y-48006000D01*
D32*
%TO.N,/Inputs/Button_L*%
X101346000Y-80077687D02*
X101346000Y-73951051D01*
X100584000Y-80839687D02*
X101346000Y-80077687D01*
X100584000Y-96647000D02*
X100584000Y-80839687D01*
X101346000Y-73951051D02*
X101361000Y-73936051D01*
%TO.N,/Inputs/Slider_L*%
X88750000Y-111910000D02*
X88750000Y-118164000D01*
D34*
%TO.N,VDD_LOAD_PRE_SW*%
X111506000Y-78613000D02*
X106553000Y-78613000D01*
X113474500Y-80581500D02*
X111506000Y-78613000D01*
X106553000Y-78613000D02*
X104775000Y-76835000D01*
D32*
%TO.N,/MCU/SPI4_CS*%
X139504764Y-58728000D02*
X140970000Y-60193236D01*
X134046842Y-58728000D02*
X139504764Y-58728000D01*
X133995221Y-58676379D02*
X134046842Y-58728000D01*
X140970000Y-60193236D02*
X140970000Y-60706000D01*
%TO.N,/MCU/SPI4_DC*%
X133985000Y-59563000D02*
X134366000Y-59182000D01*
X139316712Y-59182000D02*
X140343000Y-60208288D01*
X140343000Y-60208288D02*
X140343000Y-61286000D01*
X140343000Y-61286000D02*
X140970000Y-61913000D01*
X134366000Y-59182000D02*
X139316712Y-59182000D01*
%TO.N,/Connectors/RF_TDI*%
X193802000Y-66929000D02*
X192625000Y-68106000D01*
X189230000Y-66802000D02*
X189230000Y-62484000D01*
X190534000Y-68106000D02*
X189230000Y-66802000D01*
X192625000Y-68106000D02*
X190534000Y-68106000D01*
%TO.N,/Connectors/RF_TCK*%
X189992000Y-65659000D02*
X189992000Y-60833000D01*
X191262000Y-66929000D02*
X189992000Y-65659000D01*
X189992000Y-60833000D02*
X189357000Y-60198000D01*
%TO.N,/MCU/RF_RESET*%
X170688000Y-56769000D02*
X171323000Y-56134000D01*
X180213000Y-56134000D02*
X180594000Y-55753000D01*
X171323000Y-56134000D02*
X180213000Y-56134000D01*
X153670000Y-56769000D02*
X170688000Y-56769000D01*
%TD*%
M02*
