%TF.GenerationSoftware,KiCad,Pcbnew,8.0.7*%
%TF.CreationDate,2025-03-30T10:37:29-04:00*%
%TF.ProjectId,RC-Car-Controller,52432d43-6172-42d4-936f-6e74726f6c6c,rev?*%
%TF.SameCoordinates,Original*%
%TF.FileFunction,Paste,Top*%
%TF.FilePolarity,Positive*%
%FSLAX46Y46*%
G04 Gerber Fmt 4.6, Leading zero omitted, Abs format (unit mm)*
G04 Created by KiCad (PCBNEW 8.0.7) date 2025-03-30 10:37:29*
%MOMM*%
%LPD*%
G01*
G04 APERTURE LIST*
G04 Aperture macros list*
%AMRoundRect*
0 Rectangle with rounded corners*
0 $1 Rounding radius*
0 $2 $3 $4 $5 $6 $7 $8 $9 X,Y pos of 4 corners*
0 Add a 4 corners polygon primitive as box body*
4,1,4,$2,$3,$4,$5,$6,$7,$8,$9,$2,$3,0*
0 Add four circle primitives for the rounded corners*
1,1,$1+$1,$2,$3*
1,1,$1+$1,$4,$5*
1,1,$1+$1,$6,$7*
1,1,$1+$1,$8,$9*
0 Add four rect primitives between the rounded corners*
20,1,$1+$1,$2,$3,$4,$5,0*
20,1,$1+$1,$4,$5,$6,$7,0*
20,1,$1+$1,$6,$7,$8,$9,0*
20,1,$1+$1,$8,$9,$2,$3,0*%
G04 Aperture macros list end*
%ADD10C,0.000000*%
%ADD11RoundRect,0.225000X0.225000X0.250000X-0.225000X0.250000X-0.225000X-0.250000X0.225000X-0.250000X0*%
%ADD12RoundRect,0.200000X0.275000X-0.200000X0.275000X0.200000X-0.275000X0.200000X-0.275000X-0.200000X0*%
%ADD13RoundRect,0.200000X-0.275000X0.200000X-0.275000X-0.200000X0.275000X-0.200000X0.275000X0.200000X0*%
%ADD14R,1.384300X0.457200*%
%ADD15RoundRect,0.225000X0.250000X-0.225000X0.250000X0.225000X-0.250000X0.225000X-0.250000X-0.225000X0*%
%ADD16RoundRect,0.225000X-0.225000X-0.250000X0.225000X-0.250000X0.225000X0.250000X-0.225000X0.250000X0*%
%ADD17RoundRect,0.218750X-0.256250X0.218750X-0.256250X-0.218750X0.256250X-0.218750X0.256250X0.218750X0*%
%ADD18RoundRect,0.075000X-0.725000X-0.075000X0.725000X-0.075000X0.725000X0.075000X-0.725000X0.075000X0*%
%ADD19RoundRect,0.075000X-0.075000X-0.725000X0.075000X-0.725000X0.075000X0.725000X-0.075000X0.725000X0*%
%ADD20RoundRect,0.250000X-0.400000X-1.450000X0.400000X-1.450000X0.400000X1.450000X-0.400000X1.450000X0*%
%ADD21R,0.599999X0.240000*%
%ADD22R,0.240000X0.599999*%
%ADD23RoundRect,0.250000X-0.475000X0.250000X-0.475000X-0.250000X0.475000X-0.250000X0.475000X0.250000X0*%
%ADD24RoundRect,0.200000X-0.200000X-0.275000X0.200000X-0.275000X0.200000X0.275000X-0.200000X0.275000X0*%
%ADD25RoundRect,0.225000X-0.250000X0.225000X-0.250000X-0.225000X0.250000X-0.225000X0.250000X0.225000X0*%
%ADD26RoundRect,0.150000X-0.150000X0.512500X-0.150000X-0.512500X0.150000X-0.512500X0.150000X0.512500X0*%
%ADD27RoundRect,0.150000X-0.150000X0.587500X-0.150000X-0.587500X0.150000X-0.587500X0.150000X0.587500X0*%
%ADD28RoundRect,0.182500X0.182500X-0.182500X0.182500X0.182500X-0.182500X0.182500X-0.182500X-0.182500X0*%
%ADD29RoundRect,0.062500X0.062500X-0.350000X0.062500X0.350000X-0.062500X0.350000X-0.062500X-0.350000X0*%
%ADD30RoundRect,0.062500X0.350000X-0.062500X0.350000X0.062500X-0.350000X0.062500X-0.350000X-0.062500X0*%
%ADD31RoundRect,0.175000X-0.175000X0.175000X-0.175000X-0.175000X0.175000X-0.175000X0.175000X0.175000X0*%
%ADD32RoundRect,0.175000X0.175000X0.175000X-0.175000X0.175000X-0.175000X-0.175000X0.175000X-0.175000X0*%
%ADD33RoundRect,0.175000X-0.175000X-0.175000X0.175000X-0.175000X0.175000X0.175000X-0.175000X0.175000X0*%
%ADD34RoundRect,0.175000X0.175000X-0.175000X0.175000X0.175000X-0.175000X0.175000X-0.175000X-0.175000X0*%
%ADD35R,2.290000X5.080000*%
%ADD36R,2.420000X5.080000*%
%ADD37RoundRect,0.250000X1.450000X-0.400000X1.450000X0.400000X-1.450000X0.400000X-1.450000X-0.400000X0*%
%ADD38R,0.980000X3.700000*%
%ADD39RoundRect,0.218750X0.218750X0.256250X-0.218750X0.256250X-0.218750X-0.256250X0.218750X-0.256250X0*%
%ADD40R,3.700000X0.980000*%
%ADD41RoundRect,0.250000X0.262500X0.450000X-0.262500X0.450000X-0.262500X-0.450000X0.262500X-0.450000X0*%
%ADD42R,2.400000X1.900000*%
%ADD43RoundRect,0.250000X-0.325000X-1.100000X0.325000X-1.100000X0.325000X1.100000X-0.325000X1.100000X0*%
%ADD44RoundRect,0.200000X0.200000X0.275000X-0.200000X0.275000X-0.200000X-0.275000X0.200000X-0.275000X0*%
%ADD45RoundRect,0.250000X0.650000X-1.000000X0.650000X1.000000X-0.650000X1.000000X-0.650000X-1.000000X0*%
%ADD46O,0.990600X2.209800*%
%ADD47O,0.990600X1.803400*%
%ADD48R,0.609600X1.143000*%
%ADD49R,0.304800X1.143000*%
G04 APERTURE END LIST*
D10*
%TO.C,U2*%
G36*
X111354573Y-75679894D02*
G01*
X111363298Y-75682541D01*
X111371337Y-75686836D01*
X111378383Y-75692619D01*
X111384167Y-75699665D01*
X111388462Y-75707704D01*
X111391109Y-75716429D01*
X111392003Y-75725500D01*
X111392003Y-77182499D01*
X111391109Y-77191570D01*
X111388462Y-77200295D01*
X111384167Y-77208334D01*
X111378383Y-77215380D01*
X111371337Y-77221163D01*
X111363298Y-77225458D01*
X111354573Y-77228105D01*
X111345503Y-77228999D01*
X109888503Y-77228999D01*
X109879433Y-77228105D01*
X109870708Y-77225458D01*
X109862669Y-77221163D01*
X109855623Y-77215380D01*
X109849839Y-77208334D01*
X109845544Y-77200295D01*
X109842897Y-77191570D01*
X109842003Y-77182499D01*
X109842003Y-75725500D01*
X109842897Y-75716429D01*
X109845544Y-75707704D01*
X109849839Y-75699665D01*
X109855623Y-75692619D01*
X109862669Y-75686836D01*
X109870708Y-75682541D01*
X109879433Y-75679894D01*
X109888503Y-75679000D01*
X111345503Y-75679000D01*
X111354573Y-75679894D01*
G37*
%TD*%
D11*
%TO.C,C22*%
X145107226Y-75691602D03*
X143557226Y-75691602D03*
%TD*%
D12*
%TO.C,R19*%
X136906000Y-79565000D03*
X136906000Y-77915000D03*
%TD*%
D13*
%TO.C,R9*%
X107524002Y-72200000D03*
X107524002Y-73850000D03*
%TD*%
D14*
%TO.C,U4*%
X108350550Y-92192499D03*
X108350550Y-91542501D03*
X108350550Y-90892499D03*
X108350550Y-90242501D03*
X103867450Y-90242501D03*
X103867450Y-90892499D03*
X103867450Y-91542501D03*
X103867450Y-92192499D03*
%TD*%
D15*
%TO.C,R10*%
X109175002Y-73800000D03*
X109175002Y-72250000D03*
%TD*%
D16*
%TO.C,C18*%
X143624000Y-56388000D03*
X145174000Y-56388000D03*
%TD*%
D17*
%TO.C,D4*%
X115779002Y-72237500D03*
X115779002Y-73812500D03*
%TD*%
D11*
%TO.C,R35*%
X198133000Y-70231000D03*
X196583000Y-70231000D03*
%TD*%
D16*
%TO.C,R16*%
X136893000Y-74295000D03*
X138443000Y-74295000D03*
%TD*%
D11*
%TO.C,R37*%
X198133000Y-66929000D03*
X196583000Y-66929000D03*
%TD*%
D18*
%TO.C,U5*%
X142439000Y-60040000D03*
X142439000Y-60540000D03*
X142439000Y-61040000D03*
X142439000Y-61540000D03*
X142439000Y-62040000D03*
X142439000Y-62540000D03*
X142439000Y-63040000D03*
X142439000Y-63540000D03*
X142439000Y-64040000D03*
X142439000Y-64540000D03*
X142439000Y-65040000D03*
X142439000Y-65540000D03*
X142439000Y-66040000D03*
X142439000Y-66540000D03*
X142439000Y-67040000D03*
X142439000Y-67540000D03*
X142439000Y-68040000D03*
X142439000Y-68540000D03*
X142439000Y-69040000D03*
X142439000Y-69540000D03*
X142439000Y-70040000D03*
X142439000Y-70540000D03*
X142439000Y-71040000D03*
X142439000Y-71540000D03*
X142439000Y-72040000D03*
D19*
X144114000Y-73715000D03*
X144614000Y-73715000D03*
X145114000Y-73715000D03*
X145614000Y-73715000D03*
X146114000Y-73715000D03*
X146614000Y-73715000D03*
X147114000Y-73715000D03*
X147614000Y-73715000D03*
X148114000Y-73715000D03*
X148614000Y-73715000D03*
X149114000Y-73715000D03*
X149614000Y-73715000D03*
X150114000Y-73715000D03*
X150614000Y-73715000D03*
X151114000Y-73715000D03*
X151614000Y-73715000D03*
X152114000Y-73715000D03*
X152614000Y-73715000D03*
X153114000Y-73715000D03*
X153614000Y-73715000D03*
X154114000Y-73715000D03*
X154614000Y-73715000D03*
X155114000Y-73715000D03*
X155614000Y-73715000D03*
X156114000Y-73715000D03*
D18*
X157789000Y-72040000D03*
X157789000Y-71540000D03*
X157789000Y-71040000D03*
X157789000Y-70540000D03*
X157789000Y-70040000D03*
X157789000Y-69540000D03*
X157789000Y-69040000D03*
X157789000Y-68540000D03*
X157789000Y-68040000D03*
X157789000Y-67540000D03*
X157789000Y-67040000D03*
X157789000Y-66540000D03*
X157789000Y-66040000D03*
X157789000Y-65540000D03*
X157789000Y-65040000D03*
X157789000Y-64540000D03*
X157789000Y-64040000D03*
X157789000Y-63540000D03*
X157789000Y-63040000D03*
X157789000Y-62540000D03*
X157789000Y-62040000D03*
X157789000Y-61540000D03*
X157789000Y-61040000D03*
X157789000Y-60540000D03*
X157789000Y-60040000D03*
D19*
X156114000Y-58365000D03*
X155614000Y-58365000D03*
X155114000Y-58365000D03*
X154614000Y-58365000D03*
X154114000Y-58365000D03*
X153614000Y-58365000D03*
X153114000Y-58365000D03*
X152614000Y-58365000D03*
X152114000Y-58365000D03*
X151614000Y-58365000D03*
X151114000Y-58365000D03*
X150614000Y-58365000D03*
X150114000Y-58365000D03*
X149614000Y-58365000D03*
X149114000Y-58365000D03*
X148614000Y-58365000D03*
X148114000Y-58365000D03*
X147614000Y-58365000D03*
X147114000Y-58365000D03*
X146614000Y-58365000D03*
X146114000Y-58365000D03*
X145614000Y-58365000D03*
X145114000Y-58365000D03*
X144614000Y-58365000D03*
X144114000Y-58365000D03*
%TD*%
D20*
%TO.C,F1*%
X156144000Y-46863000D03*
X160594000Y-46863000D03*
%TD*%
D12*
%TO.C,R6*%
X117094000Y-80327000D03*
X117094000Y-78677000D03*
%TD*%
D16*
%TO.C,C10*%
X100381000Y-93630500D03*
X101931000Y-93630500D03*
%TD*%
D15*
%TO.C,R30*%
X176530000Y-51943000D03*
X176530000Y-50393000D03*
%TD*%
D16*
%TO.C,C16*%
X159753000Y-61087000D03*
X161303000Y-61087000D03*
%TD*%
D15*
%TO.C,C6*%
X118110000Y-87757000D03*
X118110000Y-86207000D03*
%TD*%
D21*
%TO.C,U2*%
X112017003Y-77204001D03*
X112017003Y-76704002D03*
X112017003Y-76204000D03*
X112017003Y-75704001D03*
D22*
X111367001Y-75054000D03*
X110867003Y-75054000D03*
X110367001Y-75054000D03*
X109867002Y-75054000D03*
D21*
X109217003Y-75704001D03*
X109217003Y-76204000D03*
X109217003Y-76704002D03*
X109217003Y-77204001D03*
D22*
X109867002Y-77853999D03*
X110367001Y-77853999D03*
X110867003Y-77853999D03*
X111367001Y-77853999D03*
%TD*%
D23*
%TO.C,C8*%
X111887000Y-89220000D03*
X111887000Y-91120000D03*
%TD*%
D12*
%TO.C,R4*%
X170307000Y-53149000D03*
X170307000Y-51499000D03*
%TD*%
D24*
%TO.C,R14*%
X105284000Y-88296500D03*
X106934000Y-88296500D03*
%TD*%
D11*
%TO.C,R39*%
X198133000Y-68580000D03*
X196583000Y-68580000D03*
%TD*%
D25*
%TO.C,R43*%
X181356000Y-68199000D03*
X181356000Y-69749000D03*
%TD*%
%TO.C,R28*%
X186309000Y-68186000D03*
X186309000Y-69736000D03*
%TD*%
D13*
%TO.C,R11*%
X118110000Y-89218000D03*
X118110000Y-90868000D03*
%TD*%
D26*
%TO.C,U1*%
X168463000Y-52257500D03*
X167513000Y-52257500D03*
X166563000Y-52257500D03*
X166563000Y-54532500D03*
X167513000Y-54532500D03*
X168463000Y-54532500D03*
%TD*%
D11*
%TO.C,R27*%
X174905000Y-60198000D03*
X173355000Y-60198000D03*
%TD*%
%TO.C,R32*%
X174905000Y-58547000D03*
X173355000Y-58547000D03*
%TD*%
D13*
%TO.C,R2*%
X116078000Y-95060000D03*
X116078000Y-96710000D03*
%TD*%
D27*
%TO.C,Q1*%
X109601000Y-63246000D03*
X107701000Y-63246000D03*
X108651000Y-65121000D03*
%TD*%
D28*
%TO.C,U3*%
X114703500Y-88126800D03*
X115543500Y-88126800D03*
X114703500Y-87286800D03*
X115543500Y-87286800D03*
D29*
X114373500Y-89169300D03*
X114873500Y-89169300D03*
X115373500Y-89169300D03*
X115873500Y-89169300D03*
D30*
X116586000Y-88456800D03*
X116586000Y-87956800D03*
X116586000Y-87456800D03*
X116586000Y-86956800D03*
D29*
X115873500Y-86244300D03*
X115373500Y-86244300D03*
X114873500Y-86244300D03*
X114373500Y-86244300D03*
D30*
X113661000Y-86956800D03*
X113661000Y-87456800D03*
X113661000Y-87956800D03*
X113661000Y-88456800D03*
%TD*%
D11*
%TO.C,C31*%
X159766000Y-77470000D03*
X158216000Y-77470000D03*
%TD*%
D25*
%TO.C,C15*%
X154940000Y-75806000D03*
X154940000Y-77356000D03*
%TD*%
D15*
%TO.C,R29*%
X181483000Y-51956000D03*
X181483000Y-50406000D03*
%TD*%
D31*
%TO.C,U6*%
X188341000Y-54698000D03*
D32*
X187241000Y-54698000D03*
X186141000Y-54698000D03*
X185041000Y-54698000D03*
X183941000Y-54698000D03*
X182841000Y-54698000D03*
X181741000Y-54698000D03*
D31*
X180641000Y-54698000D03*
X179541000Y-54698000D03*
X178441000Y-54698000D03*
X177341000Y-54698000D03*
X177341000Y-55798000D03*
X177341000Y-56898000D03*
X177341000Y-57998000D03*
X177341000Y-59098000D03*
X177341000Y-60198000D03*
X177341000Y-61298000D03*
D33*
X177341000Y-62398000D03*
X177341000Y-63498000D03*
X177341000Y-64598000D03*
X177341000Y-65698000D03*
X178441000Y-65698000D03*
X179541000Y-65698000D03*
X180641000Y-65698000D03*
X181741000Y-65698000D03*
X182841000Y-65698000D03*
X183941000Y-65698000D03*
D34*
X185041000Y-65698000D03*
X186141000Y-65698000D03*
X187241000Y-65698000D03*
X188341000Y-65698000D03*
X188341000Y-64598000D03*
X188341000Y-63498000D03*
X188341000Y-62398000D03*
X188341000Y-61298000D03*
X188341000Y-60198000D03*
X188341000Y-59098000D03*
D32*
X188341000Y-57998000D03*
X188341000Y-56898000D03*
X188341000Y-55798000D03*
%TD*%
D11*
%TO.C,R26*%
X174905000Y-56896000D03*
X173355000Y-56896000D03*
%TD*%
D12*
%TO.C,R5*%
X164655000Y-53149000D03*
X164655000Y-51499000D03*
%TD*%
D15*
%TO.C,C20*%
X139755000Y-62608000D03*
X139755000Y-61058000D03*
%TD*%
D11*
%TO.C,R36*%
X198133000Y-65278000D03*
X196583000Y-65278000D03*
%TD*%
D25*
%TO.C,R17*%
X141732000Y-49517000D03*
X141732000Y-51067000D03*
%TD*%
D11*
%TO.C,R40*%
X174892000Y-66802000D03*
X173342000Y-66802000D03*
%TD*%
D16*
%TO.C,C17*%
X159753000Y-59436000D03*
X161303000Y-59436000D03*
%TD*%
D11*
%TO.C,C11*%
X101931000Y-91979500D03*
X100381000Y-91979500D03*
%TD*%
D25*
%TO.C,C19*%
X156591000Y-75806000D03*
X156591000Y-77356000D03*
%TD*%
D24*
%TO.C,R13*%
X106744000Y-94107000D03*
X108394000Y-94107000D03*
%TD*%
D11*
%TO.C,C14*%
X138464000Y-70974000D03*
X136914000Y-70974000D03*
%TD*%
%TO.C,C2*%
X115456000Y-80264000D03*
X113906000Y-80264000D03*
%TD*%
%TO.C,R25*%
X174905000Y-53594000D03*
X173355000Y-53594000D03*
%TD*%
D25*
%TO.C,R44*%
X179705000Y-68186000D03*
X179705000Y-69736000D03*
%TD*%
D13*
%TO.C,R7*%
X112477002Y-72200000D03*
X112477002Y-73850000D03*
%TD*%
D11*
%TO.C,C23*%
X174879000Y-61849000D03*
X173329000Y-61849000D03*
%TD*%
D17*
%TO.C,D2*%
X114427000Y-95097500D03*
X114427000Y-96672500D03*
%TD*%
D12*
%TO.C,R22*%
X168148000Y-79819000D03*
X168148000Y-78169000D03*
%TD*%
D16*
%TO.C,C26*%
X191630000Y-54610000D03*
X193180000Y-54610000D03*
%TD*%
D35*
%TO.C,J5*%
X191578000Y-45466000D03*
D36*
X195958000Y-45466000D03*
X187198000Y-45466000D03*
%TD*%
D16*
%TO.C,C1*%
X113861002Y-77551998D03*
X115411002Y-77551998D03*
%TD*%
D37*
%TO.C,F2*%
X103632000Y-84140000D03*
X103632000Y-79690000D03*
%TD*%
D12*
%TO.C,R3*%
X127127000Y-47625000D03*
X127127000Y-45975000D03*
%TD*%
D38*
%TO.C,L2*%
X109937002Y-81869998D03*
X107567002Y-81869998D03*
%TD*%
D15*
%TO.C,R23*%
X179832000Y-51969000D03*
X179832000Y-50419000D03*
%TD*%
D39*
%TO.C,D1*%
X117119500Y-67564000D03*
X115544500Y-67564000D03*
%TD*%
D13*
%TO.C,R38*%
X191643000Y-51499000D03*
X191643000Y-53149000D03*
%TD*%
D16*
%TO.C,C28*%
X191630000Y-50038000D03*
X193180000Y-50038000D03*
%TD*%
D11*
%TO.C,R31*%
X174905000Y-55245000D03*
X173355000Y-55245000D03*
%TD*%
D13*
%TO.C,R8*%
X114128002Y-72200000D03*
X114128002Y-73850000D03*
%TD*%
D11*
%TO.C,C3*%
X115411002Y-75946000D03*
X113861002Y-75946000D03*
%TD*%
D15*
%TO.C,C9*%
X107651002Y-78580998D03*
X107651002Y-77030998D03*
%TD*%
D25*
%TO.C,R12*%
X110826002Y-72250000D03*
X110826002Y-73800000D03*
%TD*%
D11*
%TO.C,C27*%
X184671000Y-51943000D03*
X183121000Y-51943000D03*
%TD*%
%TO.C,C24*%
X174892000Y-63500000D03*
X173342000Y-63500000D03*
%TD*%
%TO.C,R47*%
X159766000Y-75819000D03*
X158216000Y-75819000D03*
%TD*%
D40*
%TO.C,L1*%
X115189000Y-90805000D03*
X115189000Y-93175000D03*
%TD*%
D11*
%TO.C,R41*%
X174892000Y-65151000D03*
X173342000Y-65151000D03*
%TD*%
D25*
%TO.C,R33*%
X187960000Y-68186000D03*
X187960000Y-69736000D03*
%TD*%
D11*
%TO.C,C5*%
X118069900Y-84582000D03*
X116519900Y-84582000D03*
%TD*%
D15*
%TO.C,R46*%
X145161000Y-78880000D03*
X145161000Y-77330000D03*
%TD*%
D12*
%TO.C,R20*%
X138557000Y-79565000D03*
X138557000Y-77915000D03*
%TD*%
D11*
%TO.C,C13*%
X138477000Y-72625000D03*
X136927000Y-72625000D03*
%TD*%
%TO.C,C29*%
X184671000Y-50292000D03*
X183121000Y-50292000D03*
%TD*%
D25*
%TO.C,R34*%
X184658000Y-68186000D03*
X184658000Y-69736000D03*
%TD*%
D41*
%TO.C,R15*%
X102068500Y-89820500D03*
X100243500Y-89820500D03*
%TD*%
D42*
%TO.C,Y1*%
X137702000Y-68833000D03*
X137702000Y-64733000D03*
%TD*%
D25*
%TO.C,C25*%
X178054000Y-68186000D03*
X178054000Y-69736000D03*
%TD*%
%TO.C,R18*%
X152527000Y-49504000D03*
X152527000Y-51054000D03*
%TD*%
D12*
%TO.C,R21*%
X166527000Y-79819000D03*
X166527000Y-78169000D03*
%TD*%
D15*
%TO.C,C12*%
X136961000Y-62592000D03*
X136961000Y-61042000D03*
%TD*%
D43*
%TO.C,C4*%
X111858000Y-83769200D03*
X114808000Y-83769200D03*
%TD*%
D15*
%TO.C,C21*%
X140517000Y-69847000D03*
X140517000Y-68297000D03*
%TD*%
D44*
%TO.C,R1*%
X117157000Y-65913000D03*
X115507000Y-65913000D03*
%TD*%
D15*
%TO.C,C7*%
X111715002Y-81260998D03*
X111715002Y-79710998D03*
%TD*%
%TO.C,C30*%
X143510000Y-78867000D03*
X143510000Y-77317000D03*
%TD*%
%TO.C,R24*%
X178181000Y-51956000D03*
X178181000Y-50406000D03*
%TD*%
D45*
%TO.C,D5*%
X112522000Y-66929000D03*
X112522000Y-62929000D03*
%TD*%
D16*
%TO.C,FB1*%
X183121000Y-48641000D03*
X184671000Y-48641000D03*
%TD*%
D25*
%TO.C,R42*%
X183007000Y-68199000D03*
X183007000Y-69749000D03*
%TD*%
D46*
%TO.C,J2*%
X171833000Y-44829199D03*
X163193000Y-44829199D03*
D47*
X171833000Y-48829200D03*
X163193000Y-48829200D03*
D48*
X170713001Y-49404199D03*
X169913000Y-49404199D03*
D49*
X168763000Y-49404199D03*
X167763000Y-49404199D03*
X167263000Y-49404199D03*
X166263000Y-49404199D03*
D48*
X164313001Y-49404199D03*
X165113000Y-49404199D03*
D49*
X165762940Y-49404199D03*
X166762941Y-49404199D03*
X168262940Y-49404199D03*
X169262941Y-49404199D03*
%TD*%
M02*
