M48
; DRILL file {KiCad 8.0.7} date 2025-03-30T10:34:46-0400
; FORMAT={-:-/ absolute / inch / decimal}
; #@! TF.CreationDate,2025-03-30T10:34:46-04:00
; #@! TF.GenerationSoftware,Kicad,Pcbnew,8.0.7
; #@! TF.FileFunction,Plated,1,4,PTH
FMAT,2
INCH
; #@! TA.AperFunction,Plated,PTH,ViaDrill
T1C0.0118
; #@! TA.AperFunction,Plated,PTH,ComponentDrill
T2C0.0118
; #@! TA.AperFunction,Plated,PTH,ComponentDrill
T3C0.0181
; #@! TA.AperFunction,Plated,PTH,ComponentDrill
T4C0.0236
; #@! TA.AperFunction,Plated,PTH,ComponentDrill
T5C0.0394
; #@! TA.AperFunction,Plated,PTH,ComponentDrill
T6C0.0433
; #@! TA.AperFunction,Plated,PTH,ComponentDrill
T7C0.0472
; #@! TA.AperFunction,Plated,PTH,ComponentDrill
T8C0.1772
%
G90
G05
T1
X4.505Y-3.525
X4.515Y-2.57
X4.515Y-2.63
X4.515Y-2.69
X4.515Y-2.75
X4.515Y-2.81
X4.515Y-2.87
X4.535Y-3.555
X4.545Y-2.6
X4.545Y-2.66
X4.545Y-2.72
X4.545Y-2.78
X4.545Y-2.84
X4.565Y-3.525
X4.565Y-3.585
X4.575Y-2.57
X4.575Y-2.63
X4.575Y-2.69
X4.575Y-2.75
X4.575Y-2.81
X4.575Y-2.87
X4.595Y-3.555
X4.605Y-2.6
X4.605Y-2.66
X4.605Y-2.72
X4.605Y-2.78
X4.605Y-2.84
X4.625Y-3.525
X4.625Y-3.585
X4.635Y-2.57
X4.635Y-2.63
X4.635Y-2.69
X4.635Y-2.75
X4.635Y-2.81
X4.635Y-2.87
X4.635Y-3.25
X4.655Y-3.555
X4.665Y-2.6
X4.665Y-2.66
X4.665Y-2.72
X4.665Y-2.78
X4.665Y-2.84
X4.675Y-3.33
X4.685Y-3.525
X4.685Y-3.585
X4.695Y-2.57
X4.695Y-2.63
X4.695Y-2.69
X4.695Y-2.75
X4.695Y-2.81
X4.695Y-2.87
X4.715Y-3.555
X4.725Y-2.6
X4.725Y-2.66
X4.725Y-2.72
X4.725Y-2.78
X4.725Y-2.84
X4.745Y-3.525
X4.745Y-3.585
X4.755Y-2.57
X4.755Y-2.63
X4.755Y-2.69
X4.755Y-2.75
X4.755Y-2.81
X4.755Y-2.87
X4.7735Y-5.675
X4.7735Y-5.705
X4.775Y-3.555
X4.785Y-2.6
X4.785Y-2.66
X4.785Y-2.72
X4.785Y-2.78
X4.785Y-2.84
X4.805Y-3.525
X4.805Y-3.585
X4.81Y-4.205
X4.81Y-4.245
X4.815Y-2.57
X4.815Y-2.63
X4.815Y-2.69
X4.815Y-2.75
X4.815Y-2.81
X4.815Y-2.87
X4.835Y-3.555
X4.835Y-4.225
X4.835Y-4.265
X4.8435Y-5.7258
X4.845Y-2.6
X4.845Y-2.66
X4.845Y-2.72
X4.845Y-2.78
X4.845Y-2.84
X4.845Y-5.8197
X4.845Y-5.8847
X4.8454Y-5.8525
X4.8485Y-5.62
X4.865Y-3.585
X4.875Y-2.57
X4.875Y-2.63
X4.875Y-2.69
X4.875Y-2.75
X4.875Y-2.81
X4.875Y-2.87
X4.8765Y-5.308
X4.8772Y-5.1641
X4.8788Y-5.4526
X4.8789Y-5.0179
X4.88Y-3.005
X4.88Y-3.035
X4.88Y-3.065
X4.88Y-3.095
X4.88Y-3.125
X4.88Y-3.155
X4.905Y-3.02
X4.905Y-3.05
X4.905Y-3.08
X4.905Y-3.11
X4.905Y-3.14
X4.9065Y-5.308
X4.9072Y-5.1641
X4.9088Y-5.4526
X4.9089Y-5.0179
X4.915Y-4.925
X4.9275Y-3.94
X4.9275Y-3.97
X4.9275Y-4.0
X4.9275Y-4.03
X4.9285Y-5.7228
X4.93Y-3.005
X4.93Y-3.035
X4.93Y-3.065
X4.93Y-3.095
X4.93Y-3.125
X4.93Y-3.155
X4.9307Y-4.5152
X4.9525Y-3.955
X4.9525Y-3.985
X4.9525Y-4.015
X4.9633Y-4.515
X4.9775Y-3.94
X4.9775Y-3.97
X4.9775Y-4.0
X4.9775Y-4.03
X4.985Y-2.57
X4.985Y-2.63
X4.985Y-2.69
X4.985Y-2.75
X4.985Y-2.81
X4.985Y-2.87
X4.9957Y-4.5152
X5.015Y-2.6
X5.015Y-2.66
X5.015Y-2.72
X5.015Y-2.78
X5.015Y-2.84
X5.02Y-3.9
X5.045Y-2.57
X5.045Y-2.63
X5.045Y-2.69
X5.045Y-2.75
X5.045Y-2.81
X5.045Y-2.87
X5.0687Y-5.3405
X5.0691Y-5.4818
X5.07Y-5.05
X5.07Y-5.195
X5.075Y-2.6
X5.075Y-2.66
X5.075Y-2.72
X5.075Y-2.78
X5.075Y-2.84
X5.075Y-3.67
X5.105Y-2.57
X5.105Y-2.63
X5.105Y-2.69
X5.105Y-2.75
X5.105Y-2.81
X5.105Y-2.87
X5.105Y-3.25
X5.105Y-3.6453
X5.1134Y-5.6716
X5.135Y-2.6
X5.135Y-2.66
X5.135Y-2.72
X5.135Y-2.78
X5.135Y-2.84
X5.145Y-3.33
X5.15Y-5.6671
X5.1526Y-5.7023
X5.165Y-2.57
X5.165Y-2.63
X5.165Y-2.69
X5.165Y-2.75
X5.165Y-2.81
X5.165Y-2.87
X5.1699Y-5.5473
X5.17Y-5.6103
X5.17Y-5.5159
X5.1709Y-5.5788
X5.1745Y-4.3
X5.195Y-2.6
X5.195Y-2.66
X5.195Y-2.72
X5.195Y-2.78
X5.195Y-2.84
X5.22Y-4.925
X5.225Y-2.57
X5.225Y-2.63
X5.225Y-2.69
X5.225Y-2.75
X5.225Y-2.81
X5.225Y-2.87
X5.235Y-3.99
X5.235Y-4.205
X5.235Y-4.245
X5.2352Y-3.935
X5.2352Y-4.045
X5.255Y-2.6
X5.255Y-2.66
X5.255Y-2.72
X5.255Y-2.78
X5.255Y-2.84
X5.2595Y-4.14
X5.26Y-4.225
X5.26Y-4.265
X5.2793Y-4.3679
X5.285Y-2.57
X5.285Y-2.63
X5.285Y-2.69
X5.285Y-2.75
X5.285Y-2.81
X5.285Y-2.87
X5.285Y-3.525
X5.3117Y-4.368
X5.315Y-2.6
X5.315Y-2.66
X5.315Y-2.72
X5.315Y-2.78
X5.315Y-2.84
X5.315Y-3.555
X5.3443Y-4.3679
X5.345Y-2.57
X5.345Y-2.63
X5.345Y-2.69
X5.345Y-2.75
X5.345Y-2.81
X5.345Y-2.87
X5.345Y-3.525
X5.345Y-3.585
X5.35Y-3.005
X5.35Y-3.035
X5.35Y-3.065
X5.35Y-3.095
X5.35Y-3.125
X5.35Y-3.155
X5.35Y-4.595
X5.375Y-3.02
X5.375Y-3.05
X5.375Y-3.08
X5.375Y-3.11
X5.375Y-3.14
X5.375Y-3.555
X5.4Y-3.005
X5.4Y-3.035
X5.4Y-3.065
X5.4Y-3.095
X5.4Y-3.125
X5.4Y-3.155
X5.405Y-3.525
X5.405Y-3.585
X5.415Y-4.4733
X5.415Y-4.5033
X5.415Y-4.5333
X5.435Y-3.555
X5.44Y-4.4583
X5.44Y-4.4883
X5.44Y-4.5183
X5.465Y-3.525
X5.465Y-3.585
X5.465Y-4.4733
X5.465Y-4.5033
X5.465Y-4.5333
X5.495Y-3.555
X5.525Y-3.525
X5.525Y-3.585
X5.555Y-3.555
X5.585Y-3.525
X5.585Y-3.585
X5.59Y-5.115
X5.615Y-3.555
X5.64Y-5.2685
X5.64Y-5.3
X5.6417Y-5.3332
X5.6425Y-5.4375
X5.6425Y-5.3674
X5.6426Y-5.4023
X5.645Y-3.585
X5.645Y-5.72
X5.645Y-5.7601
X5.645Y-5.795
X5.645Y-5.865
X5.645Y-5.83
X5.65Y-5.115
X5.6507Y-5.6771
X5.6833Y-5.677
X5.695Y-4.74
X5.715Y-4.98
X5.715Y-5.02
X5.7157Y-5.6771
X5.745Y-5.0
X5.745Y-5.565
X5.745Y-5.595
X5.76Y-4.7481
X5.7698Y-4.91
X5.78Y-5.1025
X5.7836Y-5.045
X5.79Y-2.77
X5.7922Y-4.7485
X5.8Y-4.125
X5.8013Y-4.91
X5.805Y-3.525
X5.805Y-3.695
X5.81Y-4.25
X5.82Y-5.075
X5.825Y-4.7481
X5.83Y-5.125
X5.8328Y-4.9103
X5.8425Y-5.1825
X5.845Y-3.695
X5.863Y-4.1733
X5.8825Y-4.96
X5.8825Y-5.045
X5.885Y-3.695
X5.89Y-4.19
X5.895Y-4.06
X5.8954Y-4.2213
X5.905Y-5.255
X5.915Y-4.68
X5.92Y-4.0
X5.92Y-4.585
X5.92Y-4.64
X5.92Y-5.06
X5.94Y-5.09
X5.945Y-3.7125
X5.945Y-3.845
X5.9525Y-4.0
X5.955Y-4.66
X5.97Y-5.19
X5.9723Y-5.0922
X5.9764Y-4.9347
X5.985Y-5.375
X6.0Y-3.17
X6.0Y-4.66
X6.005Y-3.7125
X6.005Y-5.075
X6.0151Y-5.685
X6.02Y-3.92
X6.02Y-3.95
X6.035Y-5.125
X6.06Y-4.65
X6.065Y-5.06
X6.07Y-5.475
X6.075Y-4.7
X6.075Y-5.725
X6.085Y-4.915
X6.1Y-5.075
X6.1163Y-5.6891
X6.12Y-4.915
X6.1212Y-5.658
X6.1238Y-5.518
X6.1294Y-5.0556
X6.135Y-4.7
X6.135Y-5.41
X6.14Y-5.545
X6.155Y-4.915
X6.155Y-5.485
X6.165Y-5.06
X6.175Y-3.585
X6.2Y-5.345
X6.2Y-5.485
X6.205Y-3.555
X6.21Y-5.06
X6.235Y-3.525
X6.235Y-3.585
X6.235Y-5.12
X6.25Y-4.865
X6.255Y-5.06
X6.26Y-5.095
X6.26Y-5.485
X6.265Y-3.555
X6.265Y-5.28
X6.2748Y-4.59
X6.2748Y-4.655
X6.275Y-4.6226
X6.275Y-5.2
X6.275Y-5.41
X6.29Y-5.625
X6.295Y-3.525
X6.295Y-3.585
X6.315Y-5.02
X6.325Y-3.555
X6.325Y-4.865
X6.33Y-3.965
X6.33Y-3.995
X6.34Y-3.84
X6.35Y-5.02
X6.355Y-3.525
X6.355Y-3.585
X6.3822Y-5.5011
X6.385Y-3.555
X6.39Y-5.3149
X6.395Y-5.42
X6.41Y-5.47
X6.415Y-3.525
X6.415Y-3.585
X6.4198Y-4.5924
X6.4198Y-4.6574
X6.42Y-4.625
X6.43Y-5.235
X6.435Y-4.115
X6.4397Y-5.08
X6.44Y-5.625
X6.44Y-5.69
X6.445Y-3.555
X6.465Y-4.965
X6.47Y-2.57
X6.47Y-2.63
X6.47Y-2.69
X6.47Y-2.75
X6.47Y-2.81
X6.47Y-2.87
X6.475Y-3.525
X6.475Y-3.585
X6.4771Y-4.71
X6.4852Y-4.5438
X6.495Y-4.755
X6.495Y-4.85
X6.5Y-2.6
X6.5Y-2.66
X6.5Y-2.72
X6.5Y-2.78
X6.5Y-2.84
X6.5Y-4.51
X6.505Y-3.555
X6.505Y-4.11
X6.505Y-5.235
X6.5086Y-4.71
X6.51Y-5.6
X6.515Y-5.985
X6.515Y-6.05
X6.525Y-4.965
X6.53Y-2.57
X6.53Y-2.63
X6.53Y-2.69
X6.53Y-2.75
X6.53Y-2.81
X6.53Y-2.87
X6.535Y-3.525
X6.54Y-5.715
X6.54Y-5.78
X6.54Y-5.845
X6.56Y-2.6
X6.56Y-2.66
X6.56Y-2.72
X6.56Y-2.78
X6.56Y-2.84
X6.5629Y-5.5882
X6.5629Y-5.6532
X6.563Y-5.6208
X6.57Y-4.625
X6.5702Y-4.5926
X6.5702Y-4.6576
X6.5725Y-3.745
X6.5725Y-3.775
X6.5725Y-3.805
X6.5725Y-3.835
X6.5725Y-3.945
X6.5725Y-3.975
X6.5725Y-4.005
X6.5725Y-4.035
X6.58Y-5.235
X6.5873Y-5.078
X6.59Y-2.57
X6.59Y-2.63
X6.59Y-2.69
X6.59Y-2.75
X6.59Y-2.81
X6.59Y-2.87
X6.59Y-3.25
X6.59Y-3.6453
X6.5975Y-3.76
X6.5975Y-3.79
X6.5975Y-3.82
X6.5975Y-3.96
X6.5975Y-3.99
X6.5975Y-4.02
X6.6197Y-5.0782
X6.62Y-2.6
X6.62Y-2.66
X6.62Y-2.72
X6.62Y-2.78
X6.62Y-2.84
X6.6225Y-3.745
X6.6225Y-3.775
X6.6225Y-3.805
X6.6225Y-3.835
X6.6225Y-3.945
X6.6225Y-3.975
X6.6225Y-4.005
X6.6225Y-4.035
X6.625Y-3.67
X6.635Y-3.33
X6.65Y-2.57
X6.65Y-2.63
X6.65Y-2.69
X6.65Y-2.75
X6.65Y-2.81
X6.65Y-2.87
X6.6523Y-5.078
X6.655Y-5.3149
X6.68Y-2.6
X6.68Y-2.66
X6.68Y-2.72
X6.68Y-2.78
X6.68Y-2.84
X6.7Y-4.335
X6.7Y-4.47
X6.7Y-4.78
X6.71Y-2.57
X6.71Y-2.63
X6.71Y-2.69
X6.71Y-2.75
X6.71Y-2.81
X6.71Y-2.87
X6.7125Y-5.21
X6.7125Y-5.245
X6.7125Y-5.28
X6.715Y-4.59
X6.715Y-4.655
X6.715Y-5.3784
X6.7152Y-4.6226
X6.72Y-5.075
X6.735Y-4.335
X6.74Y-2.6
X6.74Y-2.66
X6.74Y-2.72
X6.74Y-2.78
X6.74Y-2.84
X6.74Y-4.205
X6.74Y-4.245
X6.7535Y-5.2415
X6.7535Y-5.73
X6.76Y-5.92
X6.765Y-4.225
X6.765Y-4.265
X6.77Y-2.57
X6.77Y-2.63
X6.77Y-2.69
X6.77Y-2.75
X6.77Y-2.81
X6.77Y-2.87
X6.7844Y-5.0765
X6.7968Y-5.3
X6.8Y-2.6
X6.8Y-2.66
X6.8Y-2.72
X6.8Y-2.78
X6.8Y-2.84
X6.8Y-5.67
X6.805Y-5.46
X6.805Y-5.505
X6.805Y-5.56
X6.805Y-5.615
X6.8169Y-5.0766
X6.825Y-5.92
X6.83Y-2.57
X6.83Y-2.63
X6.83Y-2.69
X6.83Y-2.75
X6.83Y-2.81
X6.83Y-2.87
X6.835Y-3.005
X6.835Y-3.035
X6.835Y-3.065
X6.835Y-3.095
X6.835Y-3.125
X6.835Y-3.155
X6.84Y-5.3
X6.84Y-5.435
X6.84Y-5.67
X6.86Y-3.02
X6.86Y-3.05
X6.86Y-3.08
X6.86Y-3.11
X6.86Y-3.14
X6.8607Y-4.5171
X6.885Y-3.005
X6.885Y-3.035
X6.885Y-3.065
X6.885Y-3.095
X6.885Y-3.125
X6.885Y-3.155
X6.885Y-5.67
X6.89Y-5.92
X6.8933Y-4.517
X6.9257Y-4.5171
X6.94Y-2.57
X6.94Y-2.63
X6.94Y-2.69
X6.94Y-2.75
X6.94Y-2.81
X6.94Y-2.87
X6.945Y-5.05
X6.945Y-5.335
X6.945Y-5.4
X6.945Y-5.485
X6.9475Y-5.175
X6.9478Y-5.2157
X6.955Y-3.585
X6.97Y-2.6
X6.97Y-2.66
X6.97Y-2.72
X6.97Y-2.78
X6.97Y-2.84
X6.97Y-5.665
X6.985Y-3.555
X7.0Y-2.57
X7.0Y-2.63
X7.0Y-2.69
X7.0Y-2.75
X7.0Y-2.81
X7.0Y-2.87
X7.005Y-5.64
X7.015Y-3.525
X7.015Y-3.585
X7.03Y-2.6
X7.03Y-2.66
X7.03Y-2.72
X7.03Y-2.78
X7.03Y-2.84
X7.045Y-3.555
X7.045Y-5.05
X7.055Y-5.335
X7.06Y-2.57
X7.06Y-2.63
X7.06Y-2.69
X7.06Y-2.75
X7.06Y-2.81
X7.06Y-2.87
X7.06Y-3.25
X7.06Y-5.485
X7.067Y-3.9
X7.0671Y-3.86
X7.0671Y-3.94
X7.075Y-3.525
X7.075Y-3.585
X7.09Y-2.6
X7.09Y-2.66
X7.09Y-2.72
X7.09Y-2.78
X7.09Y-2.84
X7.095Y-5.52
X7.1Y-3.33
X7.105Y-3.555
X7.105Y-4.305
X7.11Y-5.05
X7.12Y-2.57
X7.12Y-2.63
X7.12Y-2.69
X7.12Y-2.75
X7.12Y-2.81
X7.12Y-2.87
X7.13Y-5.335
X7.13Y-5.4
X7.13Y-5.485
X7.135Y-3.525
X7.135Y-3.585
X7.15Y-2.6
X7.15Y-2.66
X7.15Y-2.72
X7.15Y-2.78
X7.15Y-2.84
X7.165Y-3.555
X7.165Y-4.205
X7.165Y-4.245
X7.175Y-5.05
X7.18Y-2.57
X7.18Y-2.63
X7.18Y-2.69
X7.18Y-2.75
X7.18Y-2.81
X7.18Y-2.87
X7.19Y-4.13
X7.19Y-4.225
X7.19Y-4.265
X7.1943Y-4.3679
X7.195Y-3.525
X7.195Y-3.585
X7.21Y-2.6
X7.21Y-2.66
X7.21Y-2.72
X7.21Y-2.78
X7.21Y-2.84
X7.21Y-4.68
X7.225Y-3.555
X7.225Y-5.43
X7.2267Y-4.368
X7.24Y-2.57
X7.24Y-2.63
X7.24Y-2.69
X7.24Y-2.75
X7.24Y-2.81
X7.24Y-2.87
X7.24Y-5.05
X7.255Y-3.525
X7.255Y-3.585
X7.2593Y-4.3679
X7.27Y-2.6
X7.27Y-2.66
X7.27Y-2.72
X7.27Y-2.78
X7.27Y-2.84
X7.285Y-3.555
X7.3Y-2.57
X7.3Y-2.63
X7.3Y-2.69
X7.3Y-2.75
X7.3Y-2.81
X7.3Y-2.87
X7.3Y-4.68
X7.305Y-3.005
X7.305Y-3.035
X7.305Y-3.065
X7.305Y-3.095
X7.305Y-3.125
X7.305Y-3.155
X7.305Y-5.05
X7.315Y-3.525
X7.315Y-4.46
X7.315Y-4.49
X7.33Y-3.02
X7.33Y-3.05
X7.33Y-3.08
X7.33Y-3.11
X7.33Y-3.14
X7.34Y-4.445
X7.34Y-4.475
X7.355Y-3.005
X7.355Y-3.035
X7.355Y-3.065
X7.355Y-3.095
X7.355Y-3.125
X7.355Y-3.155
X7.365Y-4.46
X7.365Y-4.49
X7.37Y-5.05
X7.3758Y-5.4073
X7.3763Y-5.3751
X7.3763Y-5.4401
X7.39Y-4.445
X7.39Y-4.475
X7.395Y-4.68
X7.4Y-5.31
X7.415Y-4.46
X7.415Y-4.49
X7.415Y-5.665
T2
X4.9638Y-4.2088
X4.9638Y-4.26
X5.015Y-4.2088
X5.015Y-4.26
X5.0662Y-4.2088
X5.0662Y-4.26
X6.8909Y-4.2111
X6.8909Y-4.2623
X6.942Y-4.2111
X6.942Y-4.2623
X6.9932Y-4.2111
X6.9932Y-4.2623
T3
X6.9726Y-6.0523
X7.3174Y-6.0523
T5
X4.52Y-1.8152
X4.52Y-1.9152
X4.5685Y-4.9816
X4.5685Y-5.08
X4.5685Y-5.3216
X4.5685Y-5.42
X4.5685Y-5.6616
X4.5685Y-5.76
X4.5685Y-6.0016
X4.5685Y-6.1
X4.57Y-4.3016
X4.57Y-4.4
X4.57Y-4.6416
X4.57Y-4.74
X4.76Y-1.815
X4.76Y-1.915
X4.975Y-4.855
X5.075Y-4.855
X5.175Y-4.855
X5.33Y-5.125
X5.33Y-5.225
X5.33Y-5.325
X5.33Y-5.425
X5.43Y-5.125
X5.43Y-5.225
X5.43Y-5.325
X5.43Y-5.425
X5.47Y-2.1318
X5.47Y-2.3286
X5.5055Y-5.9843
X5.5055Y-6.0843
X5.595Y-2.5368
X5.595Y-2.7336
X5.6055Y-5.9843
X5.6055Y-6.0843
X5.6098Y-4.415
X5.6098Y-4.56
X5.7055Y-5.9843
X5.7055Y-6.0843
X5.7098Y-4.415
X5.7098Y-4.56
X5.8055Y-5.9843
X5.8055Y-6.0843
X5.9055Y-5.9843
X5.9055Y-6.0843
X6.0055Y-5.9843
X6.0055Y-6.0843
X6.1055Y-5.9843
X6.1055Y-6.0843
X6.2055Y-5.9843
X6.2055Y-6.0843
X6.2066Y-2.14
X6.22Y-4.145
X6.22Y-4.29
X6.22Y-4.435
X6.305Y-2.14
X6.3055Y-5.9843
X6.3055Y-6.0843
X6.32Y-4.145
X6.32Y-4.29
X6.32Y-4.435
X6.78Y-4.775
X6.78Y-4.875
X6.88Y-4.775
X6.88Y-4.875
X6.98Y-4.775
X6.98Y-4.875
X7.0098Y-3.765
X7.08Y-4.775
X7.08Y-4.875
X7.1098Y-3.765
T6
X5.322Y-4.7914
X5.322Y-4.9686
X5.578Y-4.7914
X5.578Y-4.9686
X6.09Y-2.365
X6.19Y-2.365
X6.29Y-2.365
T7
X7.175Y-1.7331
X7.175Y-1.93
T8
X4.7883Y-2.33
X5.0717Y-2.33
X5.4055Y-1.83
X5.689Y-1.83
X6.122Y-1.83
X6.4055Y-1.83
X6.7433Y-2.325
X7.0267Y-2.325
T4
G00X6.4054Y-4.5404
M15
G01X6.3956Y-4.5404
M16
G05
G00X6.4054Y-4.7096
M15
G01X6.3956Y-4.7096
M16
G05
G00X6.5944Y-4.5404
M15
G01X6.5846Y-4.5404
M16
G05
G00X6.5944Y-4.7096
M15
G01X6.5846Y-4.7096
M16
G05
M30
